<svg width="375" height="588" viewBox="0 0 375 588" fill="none" xmlns="http://www.w3.org/2000/svg">
<rect width="26.4618" height="4.7339" transform="matrix(0.757375 0.65298 0.65298 -0.757375 127.185 47.5859)" fill="#6070FF"/>
<ellipse cx="132.304" cy="59.2115" rx="5.5" ry="5" transform="rotate(52.9708 132.304 59.2115)" fill="#CBCDFF"/>
<rect x="191.824" y="549" width="68.0631" height="12.1762" transform="rotate(23.34 191.824 549)" fill="#EBEBFF"/>
<circle cx="247" cy="563.096" r="10" fill="#6070FF"/>
<path d="M334.907 465.5C336.426 463.69 337.498 461.548 338.036 459.247C338.573 456.945 338.562 454.55 338.001 452.254C337.441 449.958 336.348 447.827 334.81 446.032C333.273 444.237 331.335 442.83 329.152 441.924C326.97 441.017 324.604 440.638 322.248 440.816C319.891 440.994 317.61 441.724 315.588 442.948C313.566 444.171 311.861 445.854 310.611 447.859C309.36 449.864 308.6 452.136 308.39 454.49L314.841 455.063C314.96 453.722 315.393 452.428 316.106 451.286C316.818 450.144 317.79 449.185 318.941 448.488C320.093 447.791 321.393 447.375 322.735 447.273C324.078 447.172 325.425 447.388 326.669 447.905C327.912 448.421 329.016 449.223 329.892 450.245C330.768 451.268 331.391 452.482 331.71 453.79C332.029 455.098 332.036 456.462 331.73 457.773C331.423 459.084 330.813 460.305 329.947 461.336L334.907 465.5Z" fill="#EBEBFF"/>
<path d="M318.497 429C318.278 432.194 319.337 435.344 321.441 437.757C323.545 440.171 326.521 441.649 329.715 441.868C332.909 442.087 336.059 441.028 338.472 438.924C340.885 436.82 342.364 433.844 342.583 430.65L318.497 429Z" fill="#6070FF"/>
<rect x="-34" y="37.4874" width="51.9898" height="9.30073" transform="rotate(-46.1415 -34 37.4874)" fill="#EBEBFF"/>
<path d="M-11.8095 24.6425C-13.8144 29.3383 -13.8718 34.6382 -11.969 39.3763C-10.0663 44.1143 -6.35924 47.9025 -1.66346 49.9074C3.03231 51.9123 8.3322 51.9696 13.0703 50.0669C17.8084 48.1641 21.5965 44.4571 23.6014 39.7613L-11.8095 24.6425Z" fill="#6070FF"/>
<circle cx="221.5" cy="13.5006" r="7" fill="white" stroke="#CBCDFF"/>
<circle cx="303.5" cy="216.501" r="5" fill="white" stroke="#CBCDFF"/>
<circle cx="60.5" cy="548.5" r="7" fill="white" stroke="#CBCDFF"/>
<path d="M421.241 74.9707C417.195 67.7882 411.514 61.6596 404.659 57.0809C397.803 52.5023 389.966 49.6024 381.782 48.616C373.597 47.6297 365.295 48.5846 357.548 51.4034C349.802 54.2222 342.827 58.8258 337.191 64.8413C331.554 70.8568 327.413 78.1152 325.103 86.0287C322.793 93.9422 322.379 102.289 323.895 110.392C325.411 118.495 328.813 126.127 333.828 132.671C338.842 139.215 345.326 144.485 352.756 148.057L362.543 127.696C358.31 125.661 354.616 122.658 351.759 118.931C348.903 115.203 346.964 110.855 346.101 106.238C345.237 101.622 345.473 96.8668 346.789 92.3585C348.105 87.8502 350.464 83.7151 353.675 80.2881C356.886 76.861 360.86 74.2384 365.273 72.6325C369.686 71.0266 374.416 70.4826 379.079 71.0446C383.741 71.6065 388.206 73.2586 392.112 75.867C396.017 78.4754 399.254 81.9669 401.559 86.0588L421.241 74.9707Z" fill="#6070FF"/>
<rect x="294" y="61.7906" width="95.5804" height="22.021" transform="rotate(-30 294 61.7906)" fill="#EBEBFF"/>
</svg>
